<svg xmlns="http://www.w3.org/2000/svg" width="200" height="200" viewBox="0 0 200 200"><g transform="translate(313 -1079)"><g transform="translate(-313 1079)"><g stroke="#fec63e" stroke-width="12"><rect width="200" height="200" stroke="none"/><rect x="6" y="6" width="188" height="188" fill="none"/></g><g transform="translate(56.121 37.577)"><path d="M9.616,12.028c7.7-.307,26.476-.925,36.023-3.091-.31,4.021-.926,16.387-.926,39.881V59.329c8.62-7.113,15.7-10.822,24.324-10.822,10.467,0,17.546,4.639,22.166,11.44,4,6.494,6.157,15.457,6.157,25.042,0,28.747-13.546,45.134-40.948,45.134a51.476,51.476,0,0,1-21.551-5.258c-3.694,1.237-8.62,3.71-13.546,5.258l-1.542-.93c.31-8.349.31-24.113.31-45.445V44.178c0-9.892-.31-16.693-.616-22.564-.31-4.021-1.231-4.64-10.467-4.64Zm46.8,112.219c10.467,0,15.393-12.677,15.393-36.171,0-9.581-1.542-17.618-4.31-22.876-2.463-4.016-5.542-6.183-9.852-6.183-4.62,0-8.62,2.785-11.393,6.8-1.537,2.166-2.153,4.021-2.153,28.44,0,20.1.926,20.715,2.158,23.188A11.081,11.081,0,0,0,56.411,124.247Z" transform="translate(-9 -8.937)" fill="#fec63e" stroke="#fec63e" stroke-width="1"/></g></g></g></svg>